Coordinates
version=1
nRows=18
nColumns=63
inDegrees=yes

Units are S.I. units (second, meters, Newtons, ...)
If the header above contains a line with 'inDegrees', this indicates whether rotational values are in degrees (yes) or radians (no).

endheader
time	pelvis_tilt	pelvis_list	pelvis_rotation	pelvis_tx	pelvis_ty	pelvis_tz	hip_flexion_r	hip_adduction_r	hip_rotation_r	knee_angle_r	knee_angle_r_beta	ankle_angle_r	subtalar_angle_r	mtp_angle_r	hip_flexion_l	hip_adduction_l	hip_rotation_l	knee_angle_l	knee_angle_l_beta	ankle_angle_l	subtalar_angle_l	mtp_angle_l	L5_S1_Flex_Ext	L5_S1_Lat_Bending	L5_S1_axial_rotation	L4_L5_Flex_Ext	L4_L5_Lat_Bending	L4_L5_axial_rotation	L3_L4_Flex_Ext	L3_L4_Lat_Bending	L3_L4_axial_rotation	L2_L3_Flex_Ext	L2_L3_Lat_Bending	L2_L3_axial_rotation	L1_L2_Flex_Ext	L1_L2_Lat_Bending	L1_L2_axial_rotation	L1_T12_Flex_Ext	L1_T12_Lat_Bending	L1_T12_axial_rotation	Abs_r3	Abs_r2	Abs_r1	Abs_t1	Abs_t2	neck_flexion	neck_bending	neck_rotation	arm_flex_r	arm_add_r	arm_rot_r	elbow_flex_r	pro_sup_r	wrist_flex_r	wrist_dev_r	arm_flex_l	arm_add_l	arm_rot_l	elbow_flex_l	pro_sup_l	wrist_flex_l	wrist_dev_l
0.000000	-1.044781	-7.496931	79.275604	0.311951	0.949486	0.451822	-2.491546	-2.023559	4.422770	7.941683	0.138609	32.018230	11.004829	0.000000	-6.772936	-0.394689	-11.427241	1.335985	0.023317	30.155408	2.455002	0.000000	-0.160052	-0.059812	2.222057	-0.297233	-0.079550	2.360936	-0.262950	-0.145426	2.360936	-0.182924	-0.145426	1.944300	-0.148624	-0.121968	1.805422	-0.091454	-0.092648	1.666543	-1.143237	-0.676601	12.358417	0.000000	0.000000	21.111194	-3.177010	-0.393481	21.460030	-24.867064	59.941578	93.781462	59.528881	0.069015	1.260155	24.991885	-44.513565	69.094590	96.781699	74.941805	23.243518	-19.409328
0.016667	-0.691730	-7.235235	80.816148	0.310178	0.948160	0.449072	-3.499273	-1.513940	3.600301	7.361451	0.128482	31.553468	10.030160	0.000000	-7.143461	-0.903416	-10.821861	1.632303	0.028489	30.736273	3.488023	0.000000	-0.156057	-0.038439	2.002942	-0.289813	-0.051124	2.128126	-0.256385	-0.093460	2.128126	-0.178357	-0.093460	1.752574	-0.144914	-0.078384	1.627391	-0.089171	-0.059542	1.502207	-1.114696	-0.434827	11.139763	0.000000	0.000000	20.512558	-2.935549	-1.731626	19.712576	-25.257421	59.102837	93.518870	59.379488	1.858740	1.439283	24.515425	-43.516931	69.334440	95.859880	75.337294	23.051982	-19.028194
0.033333	-0.402396	-7.016920	82.157560	0.308652	0.947028	0.446667	-4.372198	-1.087197	2.898860	6.841719	0.119411	31.168722	9.203289	0.000000	-7.447909	-1.330954	-10.297613	1.873225	0.032694	31.214825	4.367424	0.000000	-0.152736	-0.020721	1.807303	-0.283646	-0.027560	1.920259	-0.250930	-0.050382	1.920259	-0.174562	-0.050382	1.581390	-0.141831	-0.042255	1.468433	-0.087273	-0.032098	1.355477	-1.090977	-0.234406	10.051676	0.000000	0.000000	20.117649	-2.781116	-2.709580	18.212671	-25.525913	58.431325	93.193752	59.229673	3.407208	1.686973	23.977930	-42.666449	69.399822	95.058454	75.631737	22.869224	-18.505973
0.050000	-0.172006	-6.839487	83.314664	0.307354	0.946079	0.444585	-5.118590	-0.737355	2.307387	6.380468	0.111360	30.857269	8.512831	0.000000	-7.690255	-1.683253	-9.846683	2.063805	0.036020	31.599485	5.103957	0.000000	-0.149985	-0.006435	1.633254	-0.278537	-0.008558	1.735332	-0.246410	-0.015646	1.735332	-0.171418	-0.015646	1.429097	-0.139276	-0.013122	1.327019	-0.085701	-0.009968	1.224940	-1.071326	-0.072793	9.083666	0.000000	0.000000	19.907582	-2.704193	-3.360671	16.944495	-25.683653	57.911095	92.816545	59.069911	4.727537	1.994436	23.388795	-41.950498	69.307949	94.369687	75.826870	22.690234	-17.864353
0.066667	0.004213	-6.700441	84.302281	0.306265	0.945296	0.442806	-5.746718	-0.458442	1.814819	5.975679	0.104295	30.612389	7.947402	0.000000	-7.874473	-1.966259	-9.461254	2.209094	0.038556	31.898675	5.708375	0.000000	-0.147698	0.004646	1.478909	-0.274289	0.006179	1.571341	-0.242653	0.011296	1.571341	-0.168804	0.011296	1.294045	-0.137152	0.009474	1.201614	-0.084394	0.007197	1.109182	-1.054990	0.052557	8.225248	0.000000	0.000000	19.863472	-2.695264	-3.718229	15.892229	-25.741752	57.526200	92.397683	58.890678	5.832846	2.352887	22.757416	-41.357455	69.076040	93.785842	75.924429	22.509998	-17.125020
0.083333	0.131035	-6.597284	85.135233	0.305364	0.944666	0.441308	-6.264851	-0.244481	1.410095	5.625332	0.098181	30.427356	7.495617	0.000000	-8.004539	-2.185923	-9.133511	2.314148	0.040389	32.120818	6.191431	0.000000	-0.145769	0.012746	1.342383	-0.270708	0.016953	1.426282	-0.239484	0.030991	1.426282	-0.166600	0.030991	1.174585	-0.135361	0.025992	1.090686	-0.083292	0.019744	1.006788	-1.041214	0.144189	7.465934	0.000000	0.000000	19.966435	-2.744811	-3.815581	15.040052	-25.711323	57.260692	91.947603	58.682451	6.736253	2.753538	22.093186	-40.875698	68.721309	93.299182	75.926149	22.323506	-16.309663
0.100000	0.213233	-6.527520	85.828342	0.304635	0.944176	0.440072	-6.681259	-0.089498	1.082153	5.327409	0.092981	30.295450	7.146090	0.000000	-8.084427	-2.348192	-8.855640	2.384018	0.041609	32.274335	6.563877	0.000000	-0.144093	0.018091	1.221791	-0.267596	0.024061	1.298153	-0.236731	0.043986	1.298153	-0.164684	0.043986	1.069067	-0.133805	0.036891	0.992705	-0.082335	0.028023	0.916343	-1.029245	0.204648	6.795235	0.000000	0.000000	20.197587	-2.843317	-3.686057	14.372146	-25.603477	57.098626	91.476740	58.435707	7.450874	3.187602	21.405501	-40.493605	68.260973	92.901973	75.833768	22.125746	-15.439969
0.116667	0.255581	-6.488651	86.396430	0.304056	0.943809	0.439076	-7.004209	0.012481	0.819932	5.079890	0.088661	30.209948	6.887437	0.000000	-8.118113	-2.459014	-8.619825	2.423757	0.042303	32.367649	6.836466	0.000000	-0.142565	0.020905	1.115246	-0.264758	0.027803	1.184949	-0.234220	0.050828	1.184949	-0.162938	0.050828	0.975840	-0.132386	0.042629	0.906138	-0.081462	0.032382	0.836435	-1.018329	0.236480	6.202665	0.000000	0.000000	20.538041	-2.981264	-3.362984	13.872690	-25.429327	57.024054	90.995530	58.140921	7.989829	3.646291	20.703755	-40.199553	67.712248	92.586479	75.649019	21.911705	-14.537627
0.133333	0.262852	-6.478182	86.854319	0.303611	0.943554	0.438300	-7.241973	0.067430	0.612369	4.880756	0.085185	30.164126	6.708272	0.000000	-8.109571	-2.524339	-8.418251	2.438419	0.042558	32.409181	7.019951	0.000000	-0.141079	0.021413	1.020863	-0.261998	0.028480	1.084667	-0.231779	0.052064	1.084667	-0.161239	0.052064	0.893255	-0.131006	0.043666	0.829452	-0.080613	0.033169	0.765648	-1.007713	0.242231	5.677736	0.000000	0.000000	20.968914	-3.149135	-2.879693	13.525865	-25.199984	57.021030	90.514408	57.788569	8.366236	4.120819	19.997343	-39.981922	67.092350	92.344962	75.373641	21.676373	-13.624324
0.150000	0.239819	-6.493615	87.216832	0.303278	0.943394	0.437722	-7.402818	0.081324	0.448402	4.727988	0.082519	30.151262	6.597211	0.000000	-8.062778	-2.550114	-8.243102	2.433057	0.042465	32.407354	7.125084	0.000000	-0.139529	0.019841	0.936757	-0.259119	0.026388	0.995304	-0.229232	0.048241	0.995304	-0.159468	0.048241	0.819662	-0.129567	0.040460	0.761115	-0.079727	0.030734	0.702568	-0.996642	0.224444	5.209961	0.000000	0.000000	21.471320	-3.337413	-2.269511	13.315852	-24.926561	57.073605	90.043809	57.369128	8.593211	4.602398	19.295661	-39.829087	66.418495	92.169688	75.009368	21.414737	-12.721748
0.166667	0.191256	-6.532453	87.498789	0.303040	0.943316	0.437322	-7.495013	0.060137	0.316971	4.619568	0.080627	30.164635	6.542869	0.000000	-7.981706	-2.542289	-8.086564	2.412723	0.042110	32.370590	7.162619	0.000000	-0.137810	0.016413	0.861041	-0.255927	0.021829	0.914856	-0.226408	0.039907	0.914856	-0.157503	0.039907	0.753411	-0.127970	0.033469	0.699596	-0.078745	0.025424	0.645781	-0.984363	0.185667	4.788852	0.000000	0.000000	22.026376	-3.536580	-1.565767	13.226830	-24.620169	57.165834	89.594171	56.873075	8.683874	5.082241	18.608102	-39.729428	65.707900	92.052920	74.557936	21.121785	-11.851587
0.183333	0.121214	-6.579314	87.760748	0.302829	0.943352	0.437118	-7.546815	0.014771	0.165836	4.544401	0.079315	30.186619	6.515660	0.000000	-7.866556	-2.514437	-7.874002	2.399398	0.041877	32.301437	7.122629	0.000000	-0.137805	0.011571	0.782506	-0.255917	0.015389	0.831413	-0.226399	0.028134	0.831413	-0.157497	0.028134	0.684693	-0.127965	0.023596	0.635786	-0.078742	0.017923	0.586880	-0.984324	0.130893	4.352066	0.000000	0.000000	22.549698	-3.742467	-0.846315	13.292492	-24.254902	57.330688	89.101795	56.229705	8.492624	5.379049	17.910928	-39.701015	64.891565	91.941317	74.338477	21.062647	-11.348551
0.200000	0.035885	-6.664738	87.969954	0.302690	0.943398	0.437037	-7.524384	-0.055139	0.031098	4.533684	0.079128	30.209427	6.497047	0.000000	-7.711378	-2.464577	-7.689110	2.386957	0.041660	32.244047	7.071989	0.000000	-0.134536	0.004908	0.700043	-0.249846	0.006528	0.743796	-0.221029	0.011934	0.743796	-0.153761	0.011934	0.612538	-0.124930	0.010009	0.568785	-0.076874	0.007603	0.525033	-0.960976	0.055522	3.893431	0.000000	0.000000	23.102662	-3.895549	-0.042746	13.450115	-23.891552	57.501037	88.718342	55.456253	8.276722	5.721677	17.252063	-39.703739	64.186171	91.924129	73.872003	20.610750	-10.918313
0.216667	-0.073735	-6.765794	88.081947	0.302609	0.943462	0.437080	-7.435408	-0.168250	-0.087222	4.605185	0.080376	30.254415	6.532752	0.000000	-7.547803	-2.368659	-7.538070	2.362710	0.041237	32.172682	6.950730	0.000000	-0.131535	-0.004762	0.634493	-0.244274	-0.006334	0.674149	-0.216099	-0.011579	0.674149	-0.150332	-0.011579	0.555182	-0.122144	-0.009712	0.515526	-0.075159	-0.007377	0.475870	-0.939543	-0.053873	3.528862	0.000000	0.000000	23.669634	-4.004281	0.716017	13.654591	-23.584637	57.629142	88.477653	54.575937	7.969179	6.090642	16.674652	-39.650312	63.528850	91.918746	73.170770	20.103309	-10.444631
0.233333	-0.169414	-6.892431	88.230289	0.302497	0.943515	0.437164	-7.325775	-0.265484	-0.251584	4.680928	0.081698	30.264078	6.557291	0.000000	-7.353614	-2.294701	-7.349595	2.344874	0.040926	32.114582	6.857265	0.000000	-0.125728	-0.013550	0.562790	-0.233489	-0.018021	0.597964	-0.206558	-0.032945	0.597964	-0.143694	-0.032945	0.492441	-0.116751	-0.027631	0.457267	-0.071841	-0.020989	0.422092	-0.898062	-0.153277	3.130068	0.000000	0.000000	24.226444	-4.098655	1.423445	13.862749	-23.313064	57.665215	88.336656	53.563547	7.708606	6.543861	16.180804	-39.577232	62.945990	91.957643	72.235801	19.433507	-9.950283
0.250000	-0.270700	-7.029027	88.370662	0.302391	0.943557	0.437295	-7.191953	-0.369697	-0.432522	4.783514	0.083488	30.273613	6.577223	0.000000	-7.146169	-2.212977	-7.166645	2.334615	0.040747	32.055910	6.774541	0.000000	-0.119340	-0.024404	0.497835	-0.221627	-0.032457	0.528950	-0.196064	-0.059336	0.528950	-0.136394	-0.059336	0.435606	-0.110820	-0.049765	0.404491	-0.068191	-0.037802	0.373376	-0.852437	-0.276064	2.768809	0.000000	0.000000	24.767407	-4.154974	2.000292	14.057112	-23.079521	57.599614	88.276877	52.466343	7.450843	6.999147	15.785380	-39.484996	62.418090	92.021996	71.033442	18.678856	-9.434711
0.266667	-0.372823	-7.155643	88.488840	0.302322	0.943602	0.437449	-7.055363	-0.476744	-0.607747	4.904435	0.085599	30.294020	6.608989	0.000000	-6.952800	-2.127444	-6.999435	2.327084	0.040615	31.992872	6.709139	0.000000	-0.113870	-0.036972	0.450452	-0.211468	-0.049173	0.478605	-0.187077	-0.089894	0.478605	-0.130142	-0.089894	0.394145	-0.105740	-0.075394	0.365992	-0.065065	-0.057270	0.337839	-0.813362	-0.418236	2.505279	0.000000	0.000000	25.255878	-4.188333	2.384823	14.213458	-22.886876	57.411498	88.269635	51.324484	7.153500	7.397602	15.553843	-39.391041	62.047376	92.110524	69.510764	17.719975	-8.960311
0.283333	-0.463788	-7.281463	88.623109	0.302224	0.943623	0.437574	-6.925725	-0.568270	-0.790920	5.007603	0.087399	30.313869	6.633212	0.000000	-6.767786	-2.054464	-6.796383	2.312729	0.040365	31.926426	6.653132	0.000000	-0.105975	-0.049535	0.416011	-0.196807	-0.065881	0.442012	-0.174107	-0.120439	0.442012	-0.121119	-0.120439	0.364010	-0.098409	-0.101011	0.338009	-0.060554	-0.076729	0.312009	-0.756972	-0.560348	2.313730	0.000000	0.000000	25.655664	-4.255344	2.509875	14.294393	-22.732454	57.059383	88.299903	50.123990	6.897793	7.819119	15.419802	-39.258026	61.701980	92.171251	67.914151	16.902959	-8.457896
